<?xml version="1.0" standalone="no"?>
<!DOCTYPE svg PUBLIC "-//W3C//DTD SVG 20010904//EN"
 "http://www.w3.org/TR/2001/REC-SVG-20010904/DTD/svg10.dtd">
<svg version="1.0" xmlns="http://www.w3.org/2000/svg"
 width="205.000000pt" height="205.000000pt" viewBox="0 0 205.000000 205.000000"
 preserveAspectRatio="xMidYMid meet">
<metadata>
Created by potrace 1.14, written by Peter Selinger 2001-2017
</metadata>
<g transform="translate(0.000000,205.000000) scale(0.100000,-0.100000)"
fill="#000000" stroke="none">
<path d="M945 1919 c-44 -43 -86 -79 -93 -79 -7 0 -28 11 -46 25 -35 26 -75
32 -93 14 -7 -7 -9 -37 -6 -85 l6 -73 -39 6 c-43 6 -216 62 -224 73 -3 3 -21
12 -40 19 -31 12 -113 51 -212 102 -38 19 -67 14 -77 -15 -7 -18 -8 -70 -2
-152 1 -20 15 -41 62 -91 16 -18 18 -23 6 -23 -17 0 -27 -21 -27 -53 1 -21 31
-67 45 -67 4 0 18 -9 32 -20 14 -11 40 -22 59 -26 l34 -6 0 -267 c0 -288 9
-362 56 -476 14 -33 30 -73 36 -90 6 -16 17 -34 25 -38 7 -4 13 -13 13 -18 0
-27 174 -212 216 -230 17 -7 246 -161 265 -177 23 -21 50 -43 71 -60 15 -12
25 -6 79 46 33 33 77 68 97 78 21 11 59 34 87 52 27 18 58 38 69 45 58 38 99
78 196 193 10 12 21 31 25 43 3 12 10 21 15 21 5 0 11 14 15 30 4 16 10 30 14
30 9 0 55 144 70 218 6 30 11 172 11 325 l0 273 43 11 c23 7 61 28 85 48 34
30 42 43 42 70 0 26 -5 35 -22 41 -18 5 -20 8 -7 18 8 6 28 28 43 49 25 33 29
47 31 118 2 68 -1 85 -16 100 -15 15 -23 17 -51 7 -18 -6 -44 -19 -58 -28 -14
-9 -52 -29 -85 -44 -33 -15 -68 -31 -77 -36 -10 -6 -24 -10 -32 -10 -8 0 -16
-4 -18 -8 -6 -16 -136 -59 -227 -76 l-34 -6 6 74 c3 48 1 78 -6 85 -17 17 -59
13 -87 -9 -14 -11 -30 -20 -35 -20 -6 0 -40 31 -77 69 -36 38 -70 71 -75 74
-5 3 -45 -30 -88 -74z"/>
<path d="M2038 818 c-2 -13 -1 -34 3 -48 5 -19 7 -14 8 23 1 50 -4 62 -11 25z"/>
</g>
</svg>
